<svg version="1.0" xmlns="http://www.w3.org/2000/svg"
 width="665.000000pt" height="854.000000pt" viewBox="0 0 665.000000 854.000000"
 preserveAspectRatio="xMidYMid meet">

<g transform="translate(0.000000,854.000000) scale(0.100000,-0.100000)"
fill="#00000010" stroke="none">
<path d="M3184 8512 c-75 -26 -161 -81 -207 -132 -52 -59 -104 -169 -117 -250
-6 -44 -10 -1125 -10 -3285 l0 -3220 -1042 1041 c-788 785 -1055 1047 -1093
1066 -89 46 -158 61 -262 56 -85 -5 -102 -9 -178 -47 -245 -121 -335 -406
-204 -650 24 -46 310 -337 1512 -1538 1297 -1295 1489 -1484 1537 -1506 142
-64 291 -62 433 9 42 21 327 300 1515 1487 805 804 1478 1485 1496 1512 175
266 50 622 -251 715 -71 22 -180 26 -252 9 -125 -28 -85 8 -1208 -1113 l-1053
-1051 0 3255 c0 2686 -3 3264 -14 3305 -42 159 -164 289 -317 336 -80 25 -214
25 -285 1z"/>
</g>
</svg>
